<svg width="31" height="20" viewBox="0 0 31 20" fill="none" xmlns="http://www.w3.org/2000/svg">
<path d="M19.6908 2.03906H11.3086V17.0334H19.6908V2.03906Z" fill="#8B8B8B"/>
<path d="M11.8402 9.53768C11.8386 8.09341 12.1673 6.66772 12.8012 5.36857C13.4351 4.06943 14.3577 2.93089 15.4991 2.03917C14.0859 0.933652 12.3887 0.246197 10.6015 0.0553733C8.81428 -0.13545 7.0092 0.178055 5.39254 0.960061C3.77588 1.74207 2.41287 2.96102 1.45928 4.47761C0.505693 5.9942 0 7.74723 0 9.53636C0 11.3255 0.505693 13.0785 1.45928 14.5951C2.41287 16.1117 3.77588 17.3306 5.39254 18.1127C7.0092 18.8947 8.81428 19.2082 10.6015 19.0173C12.3887 18.8265 14.0859 18.1391 15.4991 17.0335C14.3581 16.1421 13.4357 15.004 12.8018 13.7053C12.1679 12.4067 11.839 10.9815 11.8402 9.53768Z" fill="#434343"/>
<path d="M31.0005 9.53781C31.0005 11.3271 30.4947 13.0802 29.5409 14.5969C28.5872 16.1135 27.2239 17.3324 25.6071 18.1143C23.9902 18.8962 22.185 19.2095 20.3977 19.0184C18.6104 18.8273 16.9131 18.1395 15.5 17.0337C16.6406 16.1414 17.5627 15.003 18.1968 13.7043C18.8309 12.4056 19.1603 10.9804 19.1603 9.53648C19.1603 8.09252 18.8309 6.66741 18.1968 5.36869C17.5627 4.06996 16.6406 2.93153 15.5 2.03929C16.9131 0.933432 18.6104 0.245643 20.3977 0.0545454C22.185 -0.136552 23.9902 0.176752 25.6071 0.958646C27.2239 1.74054 28.5872 2.95947 29.5409 4.47611C30.4947 5.99275 31.0005 7.7459 31.0005 9.53516V9.53781Z" fill="#C4C4C4"/>
<path d="M30.0822 15.4441V15.1368H30.2073V15.0732H29.8906V15.1368H30.0263V15.4441H30.0822ZM30.6969 15.4441V15.0732H30.6011L30.4894 15.3381L30.3776 15.0732H30.2924V15.4441H30.3616V15.1659L30.4654 15.407H30.5373L30.641 15.1659V15.4467L30.6969 15.4441Z" fill="#F79E1B"/>
</svg>
