<svg width="118" height="47" viewBox="0 0 118 47" fill="none" xmlns="http://www.w3.org/2000/svg">
<path d="M59.1133 12.5109C59.1133 7.93395 61.9382 5.08838 65.5721 5.08838C68.6996 5.08838 70.916 7.3237 70.916 8.64706C70.9195 8.99372 70.812 9.33226 70.6095 9.61242C70.407 9.89258 70.1204 10.0994 69.7921 10.2022C69.4638 10.305 69.1114 10.2983 68.7872 10.183C68.463 10.0678 68.1843 9.85013 67.9925 9.56245C67.3874 8.74991 66.7823 8.13966 65.5721 8.13966C63.8724 8.13966 62.3461 9.6653 62.3461 12.5109C62.3461 15.3564 63.8588 16.8855 65.5721 16.8855C66.1648 16.8652 66.7364 16.6583 67.2064 16.2936C67.6765 15.929 68.0216 15.425 68.1931 14.8525H66.0753C65.8681 14.8665 65.6602 14.8374 65.4647 14.7671C65.2691 14.6968 65.0899 14.5867 64.9382 14.4436C64.7865 14.3006 64.6656 14.1277 64.583 13.9356C64.5003 13.7434 64.4577 13.5363 64.4577 13.3268C64.4577 13.1174 64.5003 12.9102 64.583 12.7181C64.6656 12.526 64.7865 12.3531 64.9382 12.21C65.0899 12.067 65.2691 11.9569 65.4647 11.8866C65.6602 11.8162 65.8681 11.7872 66.0753 11.8012H69.9098C70.3235 11.7901 70.7248 11.9441 71.0266 12.2298C71.3283 12.5155 71.506 12.9097 71.5211 13.3268V13.4263C71.5211 17.3929 69.0021 19.9402 65.5721 19.9402C61.9382 19.9368 59.1133 17.0878 59.1133 12.5109Z" fill="white"/>
<path d="M80.2764 17.0876H76.0407L75.6396 18.3081C75.5336 18.6909 75.2948 19.0226 74.9668 19.2428C74.6388 19.4631 74.2432 19.5573 73.8521 19.5083C73.4611 19.4593 73.1004 19.2704 72.8358 18.9759C72.5711 18.6814 72.4201 18.3008 72.4102 17.9035C72.4451 17.4829 72.5473 17.0707 72.7127 16.683L76.3433 6.61377C76.4687 6.22804 76.7118 5.89213 77.0378 5.65397C77.3638 5.41582 77.756 5.2876 78.1585 5.2876C78.5611 5.2876 78.9533 5.41582 79.2793 5.65397C79.6053 5.89213 79.8484 6.22804 79.9738 6.61377L83.6044 16.683C83.7698 17.0707 83.872 17.4829 83.9069 17.9035C83.8998 18.3021 83.7503 18.6847 83.486 18.9811C83.2216 19.2774 82.8601 19.4677 82.4679 19.5169C82.0756 19.5661 81.679 19.4709 81.3507 19.2488C81.0224 19.0268 80.7846 18.6927 80.6809 18.3081L80.2764 17.0876ZM78.2605 10.7827H78.06L76.9484 14.242H79.3687L78.2605 10.7827Z" fill="white"/>
<path d="M90.1884 5.48935C93.4144 5.48935 95.0903 7.20355 95.0903 9.2606C95.0903 11.3965 93.5776 11.9039 93.5776 11.9039V12.1096C93.5776 12.1096 96.2971 12.5142 96.2971 15.466C96.2971 17.5231 94.3798 19.5321 91.1538 19.5321H87.2207C86.8072 19.5423 86.4064 19.388 86.1048 19.1025C85.8033 18.817 85.6253 18.4233 85.6094 18.0065V6.99785C85.6288 6.58376 85.8084 6.19386 86.1097 5.91183C86.4109 5.6298 86.8098 5.47812 87.2207 5.48935H90.1884ZM90.4501 10.7794C90.6048 10.7944 90.7609 10.7765 90.9084 10.7271C91.0558 10.6777 91.1914 10.5977 91.3065 10.4923C91.4215 10.3869 91.5134 10.2584 91.5763 10.1151C91.6392 9.97174 91.6716 9.81674 91.6716 9.66001C91.6716 9.50328 91.6392 9.34827 91.5763 9.20495C91.5134 9.06162 91.4215 8.93314 91.3065 8.82774C91.1914 8.72234 91.0558 8.64235 90.9084 8.59291C90.7609 8.54347 90.6048 8.52566 90.4501 8.54063H88.8354V10.7794H90.4501ZM91.2558 13.8307H88.8354V16.474H91.2558C92.2756 16.474 92.8705 15.8637 92.8705 15.154C92.8705 14.4443 92.2654 13.8341 91.2558 13.8341V13.8307Z" fill="white"/>
<path d="M106.171 16.4774C106.585 16.4662 106.987 16.6202 107.289 16.9057C107.591 17.1913 107.77 17.5856 107.786 18.003C107.757 18.4173 107.575 18.8056 107.276 19.0913C106.977 19.3769 106.583 19.5391 106.171 19.5458H99.9194C99.5054 19.5569 99.1037 19.403 98.8014 19.1174C98.4991 18.8318 98.3206 18.4376 98.3047 18.0202V7.04926C98.3082 6.83962 98.3529 6.63275 98.4361 6.44062C98.5194 6.24849 98.6395 6.07489 98.7896 5.92985C98.9398 5.78481 99.1169 5.6712 99.3108 5.59559C99.5047 5.51998 99.7116 5.48387 99.9194 5.48933H106.062C106.476 5.4782 106.878 5.63211 107.18 5.91771C107.482 6.2033 107.661 6.59756 107.677 7.01497C107.662 7.433 107.484 7.82812 107.181 8.11445C106.879 8.40078 106.477 8.55516 106.062 8.54404H101.531V10.9748H104.76C104.967 10.9608 105.175 10.9898 105.371 11.0601C105.566 11.1305 105.746 11.2406 105.897 11.3836C106.049 11.5267 106.17 11.6996 106.252 11.8917C106.335 12.0838 106.378 12.291 106.378 12.5004C106.378 12.7098 106.335 12.917 106.252 13.1091C106.17 13.3013 106.049 13.4742 105.897 13.6172C105.746 13.7603 105.566 13.8704 105.371 13.9407C105.175 14.011 104.967 14.0401 104.76 14.0261H101.531V16.4671L106.171 16.4774Z" fill="white"/>
<path d="M59.1112 30.2869C59.1112 28.0516 61.1305 26.0151 63.8704 26.0151C66.7939 26.0151 68.7112 27.9488 68.7112 29.1693C68.6952 29.5867 68.5167 29.9809 68.2145 30.2665C67.9122 30.5521 67.5105 30.706 67.0964 30.6949C66.866 30.7082 66.6356 30.6682 66.4229 30.5778C66.2102 30.4875 66.0208 30.3493 65.8692 30.1738C65.3661 29.663 64.761 29.0527 63.952 29.0527C63.0443 29.0527 62.4392 29.663 62.4392 30.3761C62.4392 32.512 68.8981 31.6994 68.8981 36.5815C68.8981 38.7997 66.8823 40.8533 63.8942 40.8533C60.8347 40.8533 58.9141 38.9196 58.9141 37.6991C58.93 37.2817 59.1085 36.8875 59.4108 36.6019C59.713 36.3163 60.1147 36.1624 60.5288 36.1735C60.7552 36.1619 60.9814 36.2014 61.1908 36.2892C61.4001 36.377 61.5874 36.5108 61.739 36.6809C62.2421 37.1917 62.8472 37.802 63.8568 37.802C64.965 37.802 65.5565 37.1917 65.5565 36.4786C65.5667 34.3564 59.1112 35.169 59.1112 30.2869Z" fill="white"/>
<path d="M73.504 29.4883H71.4848C71.2776 29.5023 71.0698 29.4733 70.8742 29.4029C70.6786 29.3326 70.4994 29.2225 70.3477 29.0795C70.1961 28.9364 70.0752 28.7635 69.9925 28.5714C69.9098 28.3793 69.8672 28.1721 69.8672 27.9627C69.8672 27.7532 69.9098 27.5461 69.9925 27.3539C70.0752 27.1618 70.1961 26.9889 70.3477 26.8459C70.4994 26.7028 70.6786 26.5927 70.8742 26.5224C71.0698 26.4521 71.2776 26.423 71.4848 26.437H78.7459C78.9531 26.423 79.1609 26.4521 79.3565 26.5224C79.5521 26.5927 79.7313 26.7028 79.883 26.8459C80.0346 26.9889 80.1555 27.1618 80.2382 27.3539C80.3209 27.5461 80.3635 27.7532 80.3635 27.9627C80.3635 28.1721 80.3209 28.3793 80.2382 28.5714C80.1555 28.7635 80.0346 28.9364 79.883 29.0795C79.7313 29.2225 79.5521 29.3326 79.3565 29.4029C79.1609 29.4733 78.9531 29.5023 78.7459 29.4883H76.7301V38.9473C76.711 39.3658 76.5328 39.7608 76.2323 40.0502C75.9319 40.3396 75.5325 40.5011 75.1171 40.5011C74.7016 40.5011 74.3022 40.3396 74.0018 40.0502C73.7014 39.7608 73.5231 39.3658 73.504 38.9473V29.4883Z" fill="white"/>
<path d="M87.3065 40.867C83.7779 40.867 80.8477 37.9151 80.8477 33.4411C80.8477 28.967 83.7711 26.0151 87.3065 26.0151C90.8419 26.0151 93.7654 28.967 93.7654 33.4411C93.7654 37.9151 90.8385 40.867 87.3065 40.867ZM87.3065 29.0664C85.6068 29.0664 84.0805 30.5921 84.0805 33.4411C84.0805 36.2901 85.5932 37.8157 87.3065 37.8157C89.0198 37.8157 90.5359 36.2901 90.5359 33.4411C90.5359 30.5921 89.0232 29.0664 87.3065 29.0664Z" fill="white"/>
<path d="M99.2182 38.9336C99.1992 39.3522 99.0209 39.7472 98.7205 40.0366C98.4201 40.3259 98.0206 40.4874 97.6052 40.4874C97.1898 40.4874 96.7903 40.3259 96.4899 40.0366C96.1895 39.7472 96.0112 39.3522 95.9922 38.9336V27.9627C96.0081 27.5453 96.1866 27.1511 96.4889 26.8655C96.7911 26.5799 97.1929 26.426 97.6069 26.4371H100.833C104.362 26.4371 106.078 28.1513 106.078 30.894C106.078 33.5407 104.263 34.4561 104.263 34.4561L105.963 37.6068C106.21 38.0046 106.35 38.461 106.367 38.9302C106.351 39.3476 106.173 39.7419 105.87 40.0275C105.568 40.3131 105.167 40.467 104.752 40.4558C104.467 40.46 104.185 40.3868 103.937 40.2439C103.689 40.101 103.483 39.8936 103.342 39.6433L101.122 35.3715H99.2046L99.2182 38.9336ZM100.833 32.3237C102.043 32.3237 102.648 31.7134 102.648 30.8974C102.648 30.0815 102.043 29.4884 100.833 29.4884H99.2182V32.3374L100.833 32.3237Z" fill="white"/>
<path d="M116.387 37.408C116.801 37.3968 117.203 37.5507 117.505 37.8363C117.807 38.1219 117.986 38.5162 118.001 38.9336C117.969 39.3448 117.785 39.729 117.486 40.011C117.188 40.2931 116.796 40.4529 116.387 40.4592H110.142C109.728 40.4704 109.326 40.3165 109.024 40.0309C108.722 39.7453 108.543 39.351 108.527 38.9336V27.9627C108.54 27.5429 108.717 27.1451 109.019 26.8566C109.322 26.5681 109.726 26.4123 110.142 26.4234H116.292C116.499 26.4093 116.707 26.4384 116.902 26.5087C117.098 26.579 117.277 26.6891 117.429 26.8322C117.58 26.9752 117.701 27.1482 117.784 27.3403C117.867 27.5324 117.909 27.7396 117.909 27.949C117.909 28.1584 117.867 28.3656 117.784 28.5577C117.701 28.7498 117.58 28.9228 117.429 29.0658C117.277 29.2088 117.098 29.3189 116.902 29.3893C116.707 29.4596 116.499 29.4886 116.292 29.4746H111.747V31.9157H114.976C115.183 31.9016 115.391 31.9307 115.587 32.001C115.782 32.0713 115.961 32.1814 116.113 32.3245C116.265 32.4675 116.386 32.6405 116.468 32.8326C116.551 33.0247 116.594 33.2319 116.594 33.4413C116.594 33.6507 116.551 33.8579 116.468 34.05C116.386 34.2421 116.265 34.4151 116.113 34.5581C115.961 34.7011 115.782 34.8112 115.587 34.8816C115.391 34.9519 115.183 34.981 114.976 34.9669H111.747V37.408H116.387Z" fill="white"/>
<path d="M28.9368 33.088C27.7211 31.8621 26.8931 30.3 26.5577 28.5995C26.2222 26.8989 26.3943 25.1363 27.0522 23.5344C27.7101 21.9325 28.8242 20.5633 30.2537 19.6C31.6831 18.6367 33.3637 18.1226 35.0829 18.1226C36.8021 18.1226 38.4827 18.6367 39.9121 19.6C41.3416 20.5633 42.4557 21.9325 43.1136 23.5344C43.7715 25.1363 43.9435 26.8989 43.6081 28.5995C43.2726 30.3 42.4447 31.8621 41.229 33.088H28.9368Z" fill="white"/>
<path d="M11.5579 33.088C10.3422 31.8621 9.51424 30.3 9.17879 28.5995C8.84334 26.8989 9.01544 25.1363 9.67332 23.5344C10.3312 21.9325 11.4453 20.5633 12.8748 19.6C14.3042 18.6367 15.9848 18.1226 17.704 18.1226C19.4232 18.1226 21.1038 18.6367 22.5332 19.6C23.9627 20.5633 25.0768 21.9325 25.7347 23.5344C26.3925 25.1363 26.5646 26.8989 26.2292 28.5995C25.8937 30.3 25.0658 31.8621 23.8501 33.088H11.5579Z" fill="white"/>
<path d="M49.2645 13.4315C47.078 9.33785 43.8152 5.93102 39.8345 3.58513C35.7411 1.17626 31.0744 -0.0623197 26.3355 0.00244894C21.5956 -0.0627711 16.9275 1.17582 12.8331 3.58513C8.85115 5.93052 5.58718 9.3374 3.39976 13.4315C1.1335 17.6073 0.000362757 22.3076 0.000362757 27.5325C-0.0165477 31.1118 0.557882 34.6689 1.70006 38.0577C2.74931 41.2376 4.4092 44.178 6.585 46.711L26.3355 45.5728V37.636H21.3588V41.5581L8.8762 42.2678C6.21447 38.5377 4.8819 33.1277 4.8819 27.7725C4.82224 23.7867 5.79102 19.8537 7.69321 16.3594C9.49572 13.0417 12.1537 10.277 15.3861 8.35747C18.7053 6.40089 22.4913 5.39563 26.3355 5.45018C30.1901 5.39925 33.9861 6.40404 37.319 8.35747C40.5668 10.2646 43.2291 13.0398 45.0118 16.3765C46.8885 19.8941 47.8433 23.8368 47.7857 27.8308C47.7857 34.1939 45.7642 39.4405 41.7212 43.5706L45.1988 46.999C47.6914 44.6704 49.6049 41.7822 50.784 38.5686C52.0704 35.0582 52.7087 31.3399 52.6673 27.5977C52.6673 22.3339 51.533 17.6119 49.2645 13.4315Z" fill="white"/>
<path d="M19.171 27.3829C20.1436 27.3829 20.9319 26.5878 20.9319 25.607C20.9319 24.6262 20.1436 23.8311 19.171 23.8311C18.1985 23.8311 17.4102 24.6262 17.4102 25.607C17.4102 26.5878 18.1985 27.3829 19.171 27.3829Z" fill="black"/>
<path d="M36.8429 27.3829C37.8154 27.3829 38.6038 26.5878 38.6038 25.607C38.6038 24.6262 37.8154 23.8311 36.8429 23.8311C35.8704 23.8311 35.082 24.6262 35.082 25.607C35.082 26.5878 35.8704 27.3829 36.8429 27.3829Z" fill="black"/>
</svg>
