<svg width="65" height="24" viewBox="0 0 65 24" fill="none" xmlns="http://www.w3.org/2000/svg">
<path opacity="0.5" d="M43.1941 5.06335V16.2782C43.1941 16.4559 43.0622 16.5891 42.8864 16.5891H40.6222C40.4464 16.5891 40.3145 16.4559 40.3145 16.2782V5.06335C40.3145 4.88569 40.4464 4.75244 40.6222 4.75244H42.8864C43.0622 4.75244 43.1941 4.88569 43.1941 5.06335ZM60.8674 4.75244H58.3395C58.2076 4.75244 58.0977 4.84127 58.0538 4.97452L56.0534 11.6146L53.8553 4.97452C53.8113 4.84127 53.7014 4.77465 53.5695 4.77465H51.789C51.6571 4.77465 51.5472 4.86348 51.5032 4.97452L49.305 11.6146L47.2607 4.97452C47.2168 4.84127 47.1069 4.75244 46.975 4.75244H44.4471C44.3591 4.75244 44.2492 4.79686 44.2053 4.88569C44.1393 4.97452 44.1393 5.06335 44.1613 5.15218L47.8982 16.3893C47.9422 16.5225 48.0521 16.5891 48.184 16.5891H50.2063C50.3382 16.5891 50.4481 16.5003 50.4921 16.3893L52.6682 9.838L54.8444 16.3893C54.8884 16.5225 54.9983 16.5891 55.1302 16.5891H57.1525C57.2844 16.5891 57.3943 16.5003 57.4383 16.3893L61.1752 5.15218C61.1972 5.06335 61.1972 4.95231 61.1312 4.88569C61.0653 4.79686 60.9773 4.75244 60.8674 4.75244ZM64.6923 4.75244H62.4281C62.2523 4.75244 62.1204 4.88569 62.1204 5.06335V16.2782C62.1204 16.4559 62.2523 16.5891 62.4281 16.5891H64.6923C64.8681 16.5891 65 16.4559 65 16.2782V5.06335C65 4.88569 64.8461 4.75244 64.6923 4.75244ZM39.0176 16.2116C39.1495 16.3671 39.0396 16.5891 38.8417 16.5891H36.05C35.9401 16.5891 35.8302 16.5447 35.7643 16.4559L35.3027 15.8785C34.3355 16.5003 33.1924 16.8778 31.9834 16.8778C28.5982 16.8778 25.8505 14.1019 25.8505 10.6819C25.8505 7.26191 28.5982 4.48595 31.9834 4.48595C35.3686 4.48595 38.1163 7.26191 38.1163 10.6819C38.1163 11.9033 37.7646 13.0581 37.1491 14.0353L39.0176 16.2116ZM33.5002 13.7021L32.2912 12.2142C32.1593 12.0588 32.2692 11.8145 32.467 11.8145H35.0169C35.1488 11.4592 35.2147 11.0594 35.2147 10.6597C35.2147 8.81645 33.8519 7.21749 31.9834 7.21749C30.115 7.21749 28.7521 8.81645 28.7521 10.6597C28.7521 12.5029 30.115 14.0797 31.9834 14.0797C32.533 14.1019 33.0385 13.9464 33.5002 13.7021ZM18.8603 16.145C18.9263 16.6113 18.7724 16.8112 18.6405 16.8112C18.4866 16.8112 18.2888 16.6113 18.047 16.256C17.8052 15.8785 17.7173 15.4565 17.8492 15.2567C17.9151 15.1234 18.091 15.0568 18.2888 15.1234C18.6625 15.2567 18.8164 15.8563 18.8603 16.145ZM16.6841 17.1665C17.1458 17.5663 17.2996 18.0548 17.0578 18.388C16.9259 18.5656 16.7061 18.6767 16.4204 18.6767C16.1566 18.6767 15.8928 18.5878 15.695 18.4102C15.2773 18.0326 15.1454 17.4108 15.4312 17.0777C15.5411 16.9445 15.7169 16.8778 15.9368 16.8778C16.1786 16.8556 16.4423 16.9667 16.6841 17.1665ZM15.8928 21.0307C17.9151 21.0307 20.1133 21.7413 22.5533 23.9177C22.7951 24.1397 23.1248 23.8732 22.905 23.5845C20.509 20.5421 18.3108 19.9647 16.1126 19.4761C13.4089 18.8765 12.024 17.3442 11.0568 15.6564C10.859 15.3233 10.7711 15.3899 10.7711 15.8119C10.7491 16.3448 10.793 17.0333 10.9029 17.7217C10.793 17.7217 10.6831 17.7217 10.5732 17.7217C6.72641 17.7217 3.58302 14.5682 3.58302 10.6597C3.58302 6.75113 6.70443 3.59764 10.5732 3.59764C14.42 3.59764 17.5634 6.75113 17.5634 10.6597C17.5634 10.9262 17.5414 11.2149 17.5194 11.4814C17.0139 11.3925 16.0027 11.3703 15.2993 11.437C15.0355 11.4592 15.0795 11.5924 15.2773 11.6146C17.5854 12.0366 19.1681 13.4801 19.5418 16.1006C19.5418 16.1672 19.6297 16.1894 19.6517 16.1228C20.5969 14.5238 21.1464 12.6584 21.1464 10.6375C21.1244 4.77465 16.3984 0 10.5732 0C4.72607 0 0 4.77465 0 10.6819C0 16.5891 4.72607 21.3638 10.5732 21.3638C12.1119 21.3416 13.6507 21.0307 15.8928 21.0307Z" fill="#C4C4C4"/>
</svg>
