<svg width="32" height="31" viewBox="0 0 32 31" fill="none" xmlns="http://www.w3.org/2000/svg">
<path fill-rule="evenodd" clip-rule="evenodd" d="M27.9787 9.14541C27.4754 8.50224 26.6924 8 25.8814 8H8.85123L8.31991 6.04139C8.0123 4.83893 6.94967 4 5.71924 4H2.86689C2.3915 4 2 4.3915 2 4.86689C2 5.34228 2.3915 5.73378 2.86689 5.73378H5.71924C6.1387 5.73378 6.50224 6.01342 6.61409 6.43289L10.0257 20.0235C10.3333 21.226 11.396 22.0649 12.6264 22.0649H23.7841C25.0145 22.0649 26.1051 21.226 26.3848 20.0235L28.4821 11.4105C28.6779 10.6275 28.5101 9.78859 27.9787 9.14541ZM26.7763 11.019L24.679 19.632C24.5783 20.0094 24.274 20.0056 23.9085 20.001C23.8677 20.0005 23.8262 20 23.7841 20H12.6264C12.5843 20 12.5428 20.0005 12.5021 20.001C12.1365 20.0056 11.8322 20.0094 11.7315 19.632L9.29866 10H25.8814C26.1611 10 26.4407 10.0123 26.6085 10.236C26.7763 10.4597 26.8602 10.7394 26.7763 11.019ZM13.2138 23.0835C11.5647 23.0835 10.2056 24.4426 10.2056 26.0918C10.2056 27.741 11.5647 29.1 13.2138 29.1C14.863 29.1 16.2221 27.741 16.2221 26.0918C16.2221 24.4426 14.863 23.0835 13.2138 23.0835ZM12.1673 26.0918C12.1673 25.5038 12.6259 25.0452 13.2138 25.0452C13.8018 25.0452 14.2604 25.5038 14.2604 26.0918C14.2604 26.6518 13.7738 27.1383 13.2138 27.1383C12.6259 27.1383 12.1673 26.6797 12.1673 26.0918ZM22.8335 23.0835C21.1843 23.0835 19.8252 24.4426 19.8252 26.0918C19.8252 27.741 21.1843 29.1 22.8335 29.1C24.4827 29.1 25.8418 27.741 25.8418 26.0918L25.8417 26.09C25.8129 24.4438 24.4842 23.0835 22.8335 23.0835ZM21.7869 26.0918C21.7869 25.5038 22.2455 25.0452 22.8335 25.0452C23.4214 25.0452 23.88 25.5038 23.88 26.0918C23.88 26.6518 23.3935 27.1383 22.8335 27.1383C22.2455 27.1383 21.7869 26.6797 21.7869 26.0918Z" fill="white"/>
</svg>
