<svg width="20" height="20" viewBox="0 0 20 20" fill="none" xmlns="http://www.w3.org/2000/svg">
<path d="M2.12855 19.6395L6.59642 15.1559C7.98735 16.1873 9.71549 16.7978 11.5911 16.7978C16.2276 16.7978 20 13.0298 20 8.39888C20 3.76792 16.2276 -1.64897e-07 11.5911 -3.67563e-07C6.95469 -5.70229e-07 3.1823 3.76792 3.1823 8.39888C3.1823 10.2723 3.79347 11.9773 4.82613 13.3877L0.358272 17.8502C0.105374 18.1028 -8.05102e-07 18.4186 -8.18904e-07 18.7343C-8.32706e-07 19.0501 0.126449 19.3869 0.358272 19.6184C0.842992 20.1236 1.64383 20.1236 2.12855 19.6395ZM11.5911 2.50493C14.8367 2.50493 17.4921 5.15721 17.4921 8.39888C17.4921 11.6405 14.8367 14.2928 11.5911 14.2928C8.34563 14.2928 5.6902 11.6405 5.6902 8.39888C5.6902 5.1572 8.32455 2.50493 11.5911 2.50493Z" fill="white"/>
</svg>
