<svg width="49" height="24" viewBox="0 0 49 24" fill="none" xmlns="http://www.w3.org/2000/svg">
<g opacity="0.5">
<path d="M25.3462 9.11443C25.3167 11.3433 27.3141 12.5871 28.8096 13.3234C30.3544 14.0796 30.8661 14.5672 30.8661 15.2438C30.8562 16.2786 29.6361 16.7363 28.4948 16.7562C26.5072 16.7861 25.3462 16.209 24.4311 15.7811L23.7129 19.1741C24.6378 19.602 26.34 19.9801 28.111 20C32.2731 20 34.9888 17.9204 35.0084 14.7065C35.0281 10.6269 29.4197 10.398 29.459 8.56716C29.4689 8.00995 29.9904 7.42289 31.1416 7.27363C31.7122 7.19403 33.2767 7.14428 35.0478 7.97015L35.7464 4.68657C34.7821 4.33831 33.5522 4 32.0271 4C28.1209 4 25.3659 6.0995 25.3462 9.11443ZM42.4273 4.27861C41.6697 4.27861 41.0301 4.72637 40.7448 5.41294L34.8018 19.7512H38.954L39.7805 17.4428H44.8576L45.3398 19.7512H49L45.8022 4.27861H42.4273ZM43.0078 8.46766L44.2082 14.2786H40.9219L43.0078 8.46766ZM20.3084 4.27861L17.0319 19.7612H20.9874L24.2639 4.27861H20.3084ZM14.4442 4.27861L10.3215 14.8159L8.65863 5.8607C8.46185 4.86567 7.69438 4.27861 6.82851 4.27861H0.0983936L0 4.73632C1.38735 5.04478 2.95181 5.53234 3.90622 6.04975C4.48675 6.36816 4.65402 6.64677 4.8508 7.41294L8.00924 19.7612H12.191L18.6062 4.27861H14.4442Z" fill="#C4C4C4"/>
</g>
</svg>
