<svg width="32" height="32" viewBox="0 0 32 32" fill="none" xmlns="http://www.w3.org/2000/svg">
<path fill-rule="evenodd" clip-rule="evenodd" d="M24.1844 6.61854C21.4274 5.32674 17.9422 6.11934 15.9934 8.42751L24.1844 6.61854ZM15.9934 8.42751C14.049 6.11911 10.5769 5.32749 7.80281 6.61773L7.80281 6.61772L7.79852 6.61974C6.06577 7.43566 4.75603 8.9037 4.23943 10.7974C3.72303 12.6904 4.02582 14.9025 5.30519 17.1832C7.02548 20.266 10.0173 22.6019 14.75 26.2972C14.9557 26.4578 15.1647 26.621 15.377 26.7869C15.7388 27.0696 16.2467 27.0696 16.6085 26.7869C16.8208 26.621 17.0298 26.4578 17.2355 26.2972C21.9673 22.6026 24.9588 20.2669 26.6793 17.185C27.9696 14.9052 28.2795 12.6923 27.7626 10.7974C27.2453 8.90123 25.9279 7.43367 24.1849 6.61877M23.3365 8.42992C21.0147 7.34153 17.9558 8.38719 16.9023 10.6934C16.7397 11.0495 16.3842 11.2779 15.9927 11.2779C15.6013 11.2779 15.2458 11.0495 15.0832 10.6934C14.0302 8.38831 10.9939 7.34081 8.64838 8.4302C7.41141 9.01336 6.52136 10.0318 6.16892 11.3238C5.81616 12.6169 5.97531 14.2902 7.05006 16.2058L7.05123 16.2079C8.5394 18.8752 11.1449 20.9415 15.9927 24.7299C20.8405 20.9415 23.4461 18.8752 24.9343 16.2079L24.9374 16.2023L24.9374 16.2023C26.0224 14.2864 26.1852 12.6145 25.8331 11.3238C25.4811 10.0337 24.5871 9.01444 23.3375 8.43038L23.3365 8.42992Z" fill="white"/>
</svg>
