<svg width="18" height="24" viewBox="0 0 18 24" fill="none" xmlns="http://www.w3.org/2000/svg">
<g opacity="0.5">
<path d="M0 11.9094C0 10.5631 0.110586 9.70874 2.86673 7.62028C5.138 5.89428 12.4452 0 12.4452 0V9.83819H18V24H1.73535C0.782609 24 0 23.206 0 22.2395V11.9094Z" fill="#C4C4C4"/>
<path d="M12.4462 9.83789V15.5423L2.23828 22.593L15.1428 18.3384V9.83789H12.4462Z" fill="#141111" fill-opacity="0.37"/>
<path d="M7.77426 9.54469C8.36972 8.81977 9.24591 8.5695 9.72228 8.97511C10.1986 9.38072 10.1051 10.2955 9.50961 11.0204C8.91415 11.7453 8.03797 11.9956 7.5616 11.59C7.08523 11.1844 7.1788 10.2696 7.77426 9.54469Z" fill="#393939"/>
</g>
</svg>
